<mxfile host="drawio-plugin" modified="2023-08-28T21:07:39.600Z" agent="5.0 (Windows NT 10.0; Win64; x64) AppleWebKit/537.36 (KHTML, like Gecko) Chrome/111.0.0.0 Safari/537.36" etag="qZTtH4tJKKleAyK-UZ_A" version="20.5.3" type="embed" pages="2"><diagram id="HK9Nt1Y99QjCkfbRAwh_" name="01 - Introdução (Classe e objeto)"><mxGraphModel dx="499" dy="485" grid="1" gridSize="10" guides="1" tooltips="1" connect="1" arrows="1" fold="1" page="1" pageScale="1" pageWidth="850" pageHeight="1100" math="0" shadow="0"><root><mxCell id="0"/><mxCell id="1" parent="0"/><mxCell id="2" value="MeioTransporte" style="swimlane;fontStyle=1;align=center;verticalAlign=top;childLayout=stackLayout;horizontal=1;startSize=26;horizontalStack=0;resizeParent=1;resizeParentMax=0;resizeLast=0;collapsible=1;marginBottom=0;" parent="1" vertex="1"><mxGeometry x="270" y="140" width="160" height="200" as="geometry"/></mxCell><mxCell id="3" value="- tipo: String&#10;- marca: String&#10;- modelo: String&#10;- numeroLugares: short&#10;- velocidadeAtual: double" style="text;strokeColor=none;fillColor=none;align=left;verticalAlign=top;spacingLeft=4;spacingRight=4;overflow=hidden;rotatable=0;points=[[0,0.5],[1,0.5]];portConstraint=eastwest;" parent="2" vertex="1"><mxGeometry y="26" width="160" height="84" as="geometry"/></mxCell><mxCell id="4" value="" style="line;strokeWidth=1;fillColor=none;align=left;verticalAlign=middle;spacingTop=-1;spacingLeft=3;spacingRight=3;rotatable=0;labelPosition=right;points=[];portConstraint=eastwest;strokeColor=inherit;" parent="2" vertex="1"><mxGeometry y="110" width="160" height="8" as="geometry"/></mxCell><mxCell id="5" value="+ iniciarViagem(): void&#10;+ interromperViagem(): void&#10;+ acelerar(double): void&#10;+ frear(): void&#10;+ obterVelocidade(): double" style="text;strokeColor=none;fillColor=none;align=left;verticalAlign=top;spacingLeft=4;spacingRight=4;overflow=hidden;rotatable=0;points=[[0,0.5],[1,0.5]];portConstraint=eastwest;" parent="2" vertex="1"><mxGeometry y="118" width="160" height="82" as="geometry"/></mxCell><mxCell id="6" value="&lt;p style=&quot;margin:0px;margin-top:4px;text-align:center;text-decoration:underline;&quot;&gt;&lt;b&gt;ObjectA:MeioTransporte&lt;/b&gt;&lt;/p&gt;&lt;hr&gt;&lt;p style=&quot;margin:0px;margin-left:8px;&quot;&gt;tipo = &quot;Ônibus&quot;&lt;/p&gt;&lt;p style=&quot;margin:0px;margin-left:8px;&quot;&gt;marca = &quot;Mercedes&quot;&lt;/p&gt;&lt;p style=&quot;margin:0px;margin-left:8px;&quot;&gt;modelo = &quot;Vitória&quot;&lt;/p&gt;&lt;p style=&quot;margin:0px;margin-left:8px;&quot;&gt;numeroLugares = 45&lt;/p&gt;&lt;p style=&quot;margin:0px;margin-left:8px;&quot;&gt;velocidadeAtual = 74.0&lt;/p&gt;" style="verticalAlign=top;align=left;overflow=fill;fontSize=12;fontFamily=Helvetica;html=1;" parent="1" vertex="1"><mxGeometry x="520" y="120" width="160" height="110" as="geometry"/></mxCell><mxCell id="7" value="&lt;p style=&quot;margin:0px;margin-top:4px;text-align:center;text-decoration:underline;&quot;&gt;&lt;b&gt;ObjectB:MeioTransporte&lt;/b&gt;&lt;/p&gt;&lt;hr&gt;&lt;p style=&quot;margin:0px;margin-left:8px;&quot;&gt;tipo = &quot;Avião&quot;&lt;/p&gt;&lt;p style=&quot;margin:0px;margin-left:8px;&quot;&gt;marca = &quot;AirBus&quot;&lt;/p&gt;&lt;p style=&quot;margin:0px;margin-left:8px;&quot;&gt;modelo = &quot;A320&quot;&lt;/p&gt;&lt;p style=&quot;margin:0px;margin-left:8px;&quot;&gt;numeroLugares = 180&lt;/p&gt;&lt;p style=&quot;margin:0px;margin-left:8px;&quot;&gt;velocidadeAtual = 820.0&lt;/p&gt;" style="verticalAlign=top;align=left;overflow=fill;fontSize=12;fontFamily=Helvetica;html=1;" parent="1" vertex="1"><mxGeometry x="520" y="240" width="160" height="110" as="geometry"/></mxCell><mxCell id="8" style="edgeStyle=orthogonalEdgeStyle;rounded=0;orthogonalLoop=1;jettySize=auto;html=1;entryX=0;entryY=0.5;entryDx=0;entryDy=0;exitX=1.006;exitY=0.976;exitDx=0;exitDy=0;exitPerimeter=0;" parent="1" source="3" target="6" edge="1"><mxGeometry relative="1" as="geometry"/></mxCell><mxCell id="9" style="edgeStyle=orthogonalEdgeStyle;rounded=0;orthogonalLoop=1;jettySize=auto;html=1;entryX=0;entryY=0.5;entryDx=0;entryDy=0;" parent="1" source="3" target="7" edge="1"><mxGeometry relative="1" as="geometry"><Array as="points"><mxPoint x="475" y="250"/><mxPoint x="475" y="295"/></Array></mxGeometry></mxCell></root></mxGraphModel></diagram><diagram id="CB27GHTDhQzJXEzQAIOx" name="02 - Herança"><mxGraphModel dx="499" dy="485" grid="1" gridSize="10" guides="1" tooltips="1" connect="1" arrows="1" fold="1" page="1" pageScale="1" pageWidth="850" pageHeight="1100" math="0" shadow="0"><root><mxCell id="0"/><mxCell id="1" parent="0"/><mxCell id="JYFA0glq8TWjmzoMav1p-1" value="SerVivo" style="swimlane;fontStyle=1;align=center;verticalAlign=top;childLayout=stackLayout;horizontal=1;startSize=26;horizontalStack=0;resizeParent=1;resizeParentMax=0;resizeLast=0;collapsible=1;marginBottom=0;" vertex="1" parent="1"><mxGeometry x="120" y="120" width="160" height="86" as="geometry"/></mxCell><mxCell id="JYFA0glq8TWjmzoMav1p-2" value="- codigoGenetico: HashMap" style="text;strokeColor=none;fillColor=none;align=left;verticalAlign=top;spacingLeft=4;spacingRight=4;overflow=hidden;rotatable=0;points=[[0,0.5],[1,0.5]];portConstraint=eastwest;" vertex="1" parent="JYFA0glq8TWjmzoMav1p-1"><mxGeometry y="26" width="160" height="26" as="geometry"/></mxCell><mxCell id="JYFA0glq8TWjmzoMav1p-3" value="" style="line;strokeWidth=1;fillColor=none;align=left;verticalAlign=middle;spacingTop=-1;spacingLeft=3;spacingRight=3;rotatable=0;labelPosition=right;points=[];portConstraint=eastwest;strokeColor=inherit;" vertex="1" parent="JYFA0glq8TWjmzoMav1p-1"><mxGeometry y="52" width="160" height="8" as="geometry"/></mxCell><mxCell id="JYFA0glq8TWjmzoMav1p-4" value="+ respirar(): void" style="text;strokeColor=none;fillColor=none;align=left;verticalAlign=top;spacingLeft=4;spacingRight=4;overflow=hidden;rotatable=0;points=[[0,0.5],[1,0.5]];portConstraint=eastwest;" vertex="1" parent="JYFA0glq8TWjmzoMav1p-1"><mxGeometry y="60" width="160" height="26" as="geometry"/></mxCell><mxCell id="JYFA0glq8TWjmzoMav1p-14" style="edgeStyle=orthogonalEdgeStyle;rounded=0;orthogonalLoop=1;jettySize=auto;html=1;entryX=1;entryY=0.5;entryDx=0;entryDy=0;endArrow=block;endFill=0;" edge="1" parent="1" source="JYFA0glq8TWjmzoMav1p-5" target="JYFA0glq8TWjmzoMav1p-4"><mxGeometry relative="1" as="geometry"/></mxCell><mxCell id="JYFA0glq8TWjmzoMav1p-5" value="Mamifero" style="swimlane;fontStyle=1;align=center;verticalAlign=top;childLayout=stackLayout;horizontal=1;startSize=26;horizontalStack=0;resizeParent=1;resizeParentMax=0;resizeLast=0;collapsible=1;marginBottom=0;" vertex="1" parent="1"><mxGeometry x="120" y="280" width="160" height="86" as="geometry"/></mxCell><mxCell id="JYFA0glq8TWjmzoMav1p-6" value="- peso: double" style="text;strokeColor=none;fillColor=none;align=left;verticalAlign=top;spacingLeft=4;spacingRight=4;overflow=hidden;rotatable=0;points=[[0,0.5],[1,0.5]];portConstraint=eastwest;" vertex="1" parent="JYFA0glq8TWjmzoMav1p-5"><mxGeometry y="26" width="160" height="26" as="geometry"/></mxCell><mxCell id="JYFA0glq8TWjmzoMav1p-7" value="" style="line;strokeWidth=1;fillColor=none;align=left;verticalAlign=middle;spacingTop=-1;spacingLeft=3;spacingRight=3;rotatable=0;labelPosition=right;points=[];portConstraint=eastwest;strokeColor=inherit;" vertex="1" parent="JYFA0glq8TWjmzoMav1p-5"><mxGeometry y="52" width="160" height="8" as="geometry"/></mxCell><mxCell id="JYFA0glq8TWjmzoMav1p-8" value="+ mamar(): void" style="text;strokeColor=none;fillColor=none;align=left;verticalAlign=top;spacingLeft=4;spacingRight=4;overflow=hidden;rotatable=0;points=[[0,0.5],[1,0.5]];portConstraint=eastwest;" vertex="1" parent="JYFA0glq8TWjmzoMav1p-5"><mxGeometry y="60" width="160" height="26" as="geometry"/></mxCell></root></mxGraphModel></diagram></mxfile>